# xmcd CD database file
#
# Track frame offsets:
#	150
#	21852
#	28535
#	56135
#	89047
#	116512
#	140700
#	171837
#	197512
#	227482
#	249955
#
# Disc length: 3729 seconds
#
# Revision: 3
# Processed by: cddbd v1.5.2PL0 Copyright (c) Steve Scherf et al.
# Submitted via: CDex 1.51
#
DISCID=910e8f0b
DTITLE=Various Artist - Jazz thing presents The ESC Records Music Sampler # 2
DYEAR=2002
DGENRE=Jazz
TTITLE0=Les McCann - Pump It Up
TTITLE1=Joe Zawinul - Introduction to Tower of Silence
TTITLE2=Joe Zawinul - Tower of Silence
TTITLE3=Randy Brecker - I Talk to the Trees
TTITLE4=Hiram Bullock - I'm Your Fool Tonight
TTITLE5=Dennis Chambers - Roll Call
TTITLE6=Scott Henderson - Dat's da Way It Go
TTITLE7=Dean Brown - Gemini
TTITLE8=Bill Evans - Big Fun
TTITLE9=Les McCann - You Just Can't Smile It Away
TTITLE10=Victor Bailey - Nothing But Net
EXTD=YEAR: 2002
EXTT0=
EXTT1=
EXTT2=
EXTT3=
EXTT4=
EXTT5=
EXTT6=
EXTT7=
EXTT8=
EXTT9=
EXTT10=
PLAYORDER=
